<svg xmlns="http://www.w3.org/2000/svg" xmlns:xlink="http://www.w3.org/1999/xlink" width="100" zoomAndPan="magnify" viewBox="0 0 75 74.999997" height="100" preserveAspectRatio="xMidYMid meet" version="1.0"><defs><clipPath id="dfa6e66a36"><path d="M 15.167969 15.167969 L 60 15.167969 L 60 60 L 15.167969 60 Z M 15.167969 15.167969 " clip-rule="nonzero"/></clipPath></defs><g clip-path="url(#dfa6e66a36)"><path fill="#545454" d="M 37.496094 15.167969 C 25.183594 15.167969 15.167969 25.183594 15.167969 37.496094 C 15.167969 49.808594 25.183594 59.828125 37.496094 59.828125 C 49.808594 59.828125 59.828125 49.808594 59.828125 37.496094 C 59.828125 25.183594 49.808594 15.167969 37.496094 15.167969 Z M 37.496094 20.992188 C 41.242188 20.992188 44.292969 24.039062 44.292969 27.789062 C 44.292969 31.535156 41.242188 34.582031 37.496094 34.582031 C 33.75 34.582031 30.699219 31.535156 30.699219 27.789062 C 30.699219 24.039062 33.75 20.992188 37.496094 20.992188 Z M 49.148438 50.117188 L 25.847656 50.117188 C 25.308594 50.117188 24.875 49.683594 24.875 49.148438 C 24.875 42.1875 30.539062 36.527344 37.496094 36.527344 C 44.457031 36.527344 50.117188 42.1875 50.117188 49.148438 C 50.117188 49.683594 49.683594 50.117188 49.148438 50.117188 Z M 49.148438 50.117188 " fill-opacity="1" fill-rule="nonzero"/><path fill="#545454" d="M 37.496094 15.167969 C 25.183594 15.167969 15.167969 25.183594 15.167969 37.496094 C 15.167969 49.808594 25.183594 59.828125 37.496094 59.828125 C 49.808594 59.828125 59.828125 49.808594 59.828125 37.496094 C 59.828125 25.183594 49.808594 15.167969 37.496094 15.167969 Z M 37.496094 20.992188 C 41.242188 20.992188 44.292969 24.039062 44.292969 27.789062 C 44.292969 31.535156 41.242188 34.582031 37.496094 34.582031 C 33.75 34.582031 30.699219 31.535156 30.699219 27.789062 C 30.699219 24.039062 33.75 20.992188 37.496094 20.992188 Z M 49.148438 50.117188 L 25.847656 50.117188 C 25.308594 50.117188 24.875 49.683594 24.875 49.148438 C 24.875 42.1875 30.539062 36.527344 37.496094 36.527344 C 44.457031 36.527344 50.117188 42.1875 50.117188 49.148438 C 50.117188 49.683594 49.683594 50.117188 49.148438 50.117188 Z M 49.148438 50.117188 " fill-opacity="1" fill-rule="nonzero"/></g></svg>